<?xml version="1.0" encoding="UTF-8"?>
<svg viewBox="0 0 590.73041 521.86401" xmlns="http://www.w3.org/2000/svg">
 <defs>
  <linearGradient id="b" x2="0" y1="315.22" y2="397.64" gradientUnits="userSpaceOnUse">
   <stop stop-color="#c87137" offset="0"/>
   <stop stop-color="#502d16" offset="1"/>
  </linearGradient>
  <linearGradient id="c" x1="102.03" x2="687.98" gradientUnits="userSpaceOnUse">
   <stop stop-color="#520" offset="0"/>
   <stop stop-color="#f60" offset="1"/>
  </linearGradient>
  <linearGradient id="d" x2="0" y1="387.68" y2="833.2" gradientUnits="userSpaceOnUse">
   <stop stop-color="#520" offset="0"/>
   <stop stop-color="#fca" offset=".5"/>
   <stop stop-color="#803300" offset="1"/>
  </linearGradient>
  <radialGradient id="a" cx="385.88" cy="612.67" r="272.76" gradientTransform="matrix(-8.8619e-8 .88204 -1.1998 -1.2055e-7 1121 271.58)" gradientUnits="userSpaceOnUse">
   <stop stop-color="#0cf" offset="0"/>
   <stop stop-color="#045" offset="1"/>
  </radialGradient>
 </defs>
 <g transform="translate(-97.127 -332.12)">
  <path d="m169.67 807.4h-29.294l-8 46.589h19.294l18-46.589z" fill="#520"/>
  <path d="m611.18 807.4h29.294l8 46.589h-19.294l-18-46.589z" fill="#520"/>
  <path d="m398 332.12c-100.54 0-184.58 28.02-205.25 65.438 13.558-2.7536 28.389-5.6334 44-8.5312 26.192-25.101 88.516-42.781 161.25-42.781 66.131 0 123.66 14.606 153.25 36.125 17.781 3.2323 34.197 6.6791 48.781 10.094-25.168-34.844-106.1-60.344-202.03-60.344z" fill="url(#b)"/>
  <path d="m124.29 412.36s157.82-43.79 273.57-44.286c140.01-0.59898 273.57 44.286 273.57 44.286s16.429 129.27 16.429 197.86c0 69.286-19.286 197.86-19.286 197.86s-163.57 43.571-277.86 43.571c-131.44 0-277.86-43.571-277.86-43.571s-14.751-94.929-15.714-197.86c-0.80251-85.714 28.571-197.86 27.143-197.86z" fill="url(#c)"/>
  <path d="m132.33 789.72s-22.314-106.12-22.223-184.35c0.0793-68.178 30.305-184.35 30.305-184.35s113.81-36.593 257.59-36.366c156.64 0.24736 257.59 49.497 257.59 49.497s18.75 116.68 18.183 180.31c-0.71429 80.068-23.234 180.31-23.234 180.31s-117.81 38.804-259.1 38.386c-114.15-0.33805-257.08-41.416-259.1-43.437z" fill="url(#d)"/>
  <path d="m258.6 402.81c43.554-8.1298 87.708-14.159 132.11-11.626 52.921-0.74097 105.57 7.0491 157.58 15.883 57.396 13.826 103.84 64.908 110.5 123.84 12.697 61.472 11.544 125.59-0.5195 187.03-7.7634 42.352-43.422 73.696-83.391 85.813-45.068 14-92.371 21.202-139.47 23.313-66.601 2.0666-133.58-5.3295-197.89-22.722-48.948-16.006-99.93-51.278-107.83-105.89-6.8067-50.168-11.407-101.16-2.9164-151.47 2.015-51.054 30.436-100.55 75.873-124.83 17.325-9.6804 36.434-15.942 55.951-19.339z" fill="url(#a)"/>
  <g transform="translate(1037.4 439.42)">
   <g transform="matrix(-1.4034 0 0 1.4034 -127.65 -291.89)">
    <path transform="rotate(30.623)" d="m433.35 149.06h10.013a2.2311 2.2311 0 0 1 2.2311 2.2311v19.295a2.2311 2.2311 0 0 1 -2.2311 2.2311h-10.013a2.2311 2.2311 0 0 1 -2.2311 -2.2311v-19.295a2.2311 2.2311 0 0 1 2.2311 -2.2311" fill="#a4a4a4" stroke="#484848" stroke-linecap="round" stroke-linejoin="round" stroke-width="2.312"/>
    <path d="m304.15 349.26-0.48141 1.2224-9.9608 23.078 2.0911 1.386 13.432-23.71-3.9499-1.5307-1.1307-0.44565z" fill="#6b6b6b" opacity=".63"/>
    <path d="m279.17 375.6 0.67137-1.1292 12.166-20.463 2.352-0.74264-10.515 25.14-3.6293-2.1846-1.0449-0.62083z" fill="#fff" opacity=".63"/>
    <path transform="rotate(30.623)" d="m433.35 149.06h10.013a2.2311 2.2311 0 0 1 2.2311 2.2311v19.295a2.2311 2.2311 0 0 1 -2.2311 2.2311h-10.013a2.2311 2.2311 0 0 1 -2.2311 -2.2311v-19.295a2.2311 2.2311 0 0 1 2.2311 -2.2311" fill="none" stroke="#484848" stroke-linecap="round" stroke-linejoin="round" stroke-width="2.312"/>
    <path transform="rotate(30.623)" d="m431.17 130.95h14.517a2.1266 2.1266 0 0 1 2.1266 2.1266v21.25a2.1266 2.1266 0 0 1 -2.1266 2.1266h-14.517a2.1266 2.1266 0 0 1 -2.1266 -2.1266v-21.25a2.1266 2.1266 0 0 1 2.1266 -2.1266" fill="#a4a4a4" stroke="#484848" stroke-linecap="round" stroke-linejoin="round" stroke-width="2"/>
    <path d="m290.84 352.88 0.67137-1.1292 12.166-20.463 2.352-0.74264-10.515 25.14-3.6293-2.1846-1.0449-0.62083z" fill="#fff" opacity=".63"/>
    <path d="m313.52 336.7-0.48141 1.2224-9.9608 23.078 2.0911 1.386 13.432-23.71-3.9499-1.5307-1.1307-0.44565z" fill="#6b6b6b" opacity=".63"/>
    <path transform="rotate(30.623)" d="m431.17 130.95h14.517a2.1266 2.1266 0 0 1 2.1266 2.1266v21.25a2.1266 2.1266 0 0 1 -2.1266 2.1266h-14.517a2.1266 2.1266 0 0 1 -2.1266 -2.1266v-21.25a2.1266 2.1266 0 0 1 2.1266 -2.1266" fill="none" stroke="#484848" stroke-linecap="round" stroke-linejoin="round" stroke-width="2"/>
    <path transform="matrix(1.0954 0 0 .93453 -9.6756 11.286)" d="m315.5 337.99c0 9.8721-6.8277 17.875-15.25 17.875s-15.25-8.0029-15.25-17.875 6.8277-17.875 15.25-17.875 15.25 8.0029 15.25 17.875z" fill="#a4a4a4" stroke="#484848" stroke-linecap="round" stroke-linejoin="round" stroke-width="2"/>
    <path d="m262.61 380.88c-0.91165-0.74629-2.2441-0.61341-2.9904 0.29825l-8.9473 10.93c-5.6247 6.8172-6.0815 13.602-1.4827 20.675l12.847-15.693c0.37315-0.45583 0.89285-0.71083 1.4338-0.76479s1.1008 0.0934 1.5566 0.46654l5.1989 4.2559c0.45583 0.37315 0.71084 0.89286 0.7648 1.4338s-0.0934 1.1008-0.46655 1.5566l-12.768 15.597c7.2047 2.6499 14.419 0.67272 19.467-5.7916l8.9473-10.93c0.7463-0.91165 0.6134-2.2441-0.29825-2.9904l-1.0206-11.013-11.631-9.5214-10.61 1.4913z" fill="#a4a4a4" stroke="#484848" stroke-linecap="round" stroke-linejoin="round" stroke-width="2.0235"/>
    <path d="m257.5 419.49c13.575 0.0813 18.453-9.7674 23.938-18.812l-0.75-13.938 4.375 0.5625 0.25 12.5 0.6875 1.875-11.062 14.375-6.4375 3.8125-7 1-4-1.375z" fill="#808080"/>
    <path d="m262.61 380.88c-0.91165-0.74629-2.2441-0.61341-2.9904 0.29825l-8.9473 10.93c-5.6247 6.8172-6.0815 13.602-1.4827 20.675l12.847-15.693c0.37315-0.45583 0.89285-0.71083 1.4338-0.76479s1.1008 0.0934 1.5566 0.46654l5.1989 4.2559c0.45583 0.37315 0.71084 0.89286 0.7648 1.4338s-0.0934 1.1008-0.46655 1.5566l-12.768 15.597c7.2047 2.6499 14.419 0.67272 19.467-5.7916l8.9473-10.93c0.7463-0.91165 0.6134-2.2441-0.29825-2.9904l-1.0206-11.013-11.631-9.5214-10.61 1.4913z" fill="none" stroke="#484848" stroke-linecap="round" stroke-linejoin="round" stroke-width="2.0235"/>
    <path d="m249.5 408.86c-5.7215-8.1277 5.3182-18.737 11.625-25.938l12.312-1.8125c0.11711 1.9974-0.13962 2.0338 1.1376 3.534-1.0173-0.0122-9.5502 1.1721-10.212 1.4377-7.6073 3.0531-17.205 14.258-14.863 22.778z" fill="#fff" opacity=".63"/>
    <path transform="matrix(.86793 -.19882 .20416 .8912 -26.866 104.27)" d="m284.96 369.65c0 6.8342-5.7776 12.374-12.905 12.374s-12.905-5.5402-12.905-12.374 5.7776-12.374 12.905-12.374 12.905 5.5402 12.905 12.374z" fill="#a4a4a4" stroke="#484848" stroke-linecap="round" stroke-linejoin="round" stroke-width="2.2166"/>
    <path d="m275.21 381c2.7596-5.6381 7.8129-8.6782 14.558-9.8017-7.8408-2.0096-13.971-0.99884-14.558 9.8017z" fill="#fff" opacity=".6298"/>
    <path d="m305.65 332.16c0.80536-12.314 8.9204-17.249 18.797-18.651-9.9954-3.7482-23.708 5.5699-18.797 18.651z" fill="#fff" opacity=".6298"/>
   </g>
   <g transform="matrix(1.4034 0 0 1.4034 -1154.9 -291.89)">
    <path transform="rotate(30.623)" d="m433.35 149.06h10.013a2.2311 2.2311 0 0 1 2.2311 2.2311v19.295a2.2311 2.2311 0 0 1 -2.2311 2.2311h-10.013a2.2311 2.2311 0 0 1 -2.2311 -2.2311v-19.295a2.2311 2.2311 0 0 1 2.2311 -2.2311" fill="#a4a4a4" stroke="#484848" stroke-linecap="round" stroke-linejoin="round" stroke-width="2.312"/>
    <path d="m304.15 349.26-0.48141 1.2224-9.9608 23.078 2.0911 1.386 13.432-23.71-3.9499-1.5307-1.1307-0.44565z" fill="#6b6b6b" opacity=".63"/>
    <path d="m279.17 375.6 0.67137-1.1292 12.166-20.463 2.352-0.74264-10.515 25.14-3.6293-2.1846-1.0449-0.62083z" fill="#fff" opacity=".63"/>
    <path transform="rotate(30.623)" d="m433.35 149.06h10.013a2.2311 2.2311 0 0 1 2.2311 2.2311v19.295a2.2311 2.2311 0 0 1 -2.2311 2.2311h-10.013a2.2311 2.2311 0 0 1 -2.2311 -2.2311v-19.295a2.2311 2.2311 0 0 1 2.2311 -2.2311" fill="none" stroke="#484848" stroke-linecap="round" stroke-linejoin="round" stroke-width="2.312"/>
    <path transform="rotate(30.623)" d="m431.17 130.95h14.517a2.1266 2.1266 0 0 1 2.1266 2.1266v21.25a2.1266 2.1266 0 0 1 -2.1266 2.1266h-14.517a2.1266 2.1266 0 0 1 -2.1266 -2.1266v-21.25a2.1266 2.1266 0 0 1 2.1266 -2.1266" fill="#a4a4a4" stroke="#484848" stroke-linecap="round" stroke-linejoin="round" stroke-width="2"/>
    <path d="m290.84 352.88 0.67137-1.1292 12.166-20.463 2.352-0.74264-10.515 25.14-3.6293-2.1846-1.0449-0.62083z" fill="#fff" opacity=".63"/>
    <path d="m313.52 336.7-0.48141 1.2224-9.9608 23.078 2.0911 1.386 13.432-23.71-3.9499-1.5307-1.1307-0.44565z" fill="#6b6b6b" opacity=".63"/>
    <path transform="rotate(30.623)" d="m431.17 130.95h14.517a2.1266 2.1266 0 0 1 2.1266 2.1266v21.25a2.1266 2.1266 0 0 1 -2.1266 2.1266h-14.517a2.1266 2.1266 0 0 1 -2.1266 -2.1266v-21.25a2.1266 2.1266 0 0 1 2.1266 -2.1266" fill="none" stroke="#484848" stroke-linecap="round" stroke-linejoin="round" stroke-width="2"/>
    <path transform="matrix(1.0954 0 0 .93453 -9.6756 11.286)" d="m315.5 337.99c0 9.8721-6.8277 17.875-15.25 17.875s-15.25-8.0029-15.25-17.875 6.8277-17.875 15.25-17.875 15.25 8.0029 15.25 17.875z" fill="#a4a4a4" stroke="#484848" stroke-linecap="round" stroke-linejoin="round" stroke-width="2"/>
    <path d="m262.61 380.88c-0.91165-0.74629-2.2441-0.61341-2.9904 0.29825l-8.9473 10.93c-5.6247 6.8172-6.0815 13.602-1.4827 20.675l12.847-15.693c0.37315-0.45583 0.89285-0.71083 1.4338-0.76479s1.1008 0.0934 1.5566 0.46654l5.1989 4.2559c0.45583 0.37315 0.71084 0.89286 0.7648 1.4338s-0.0934 1.1008-0.46655 1.5566l-12.768 15.597c7.2047 2.6499 14.419 0.67272 19.467-5.7916l8.9473-10.93c0.7463-0.91165 0.6134-2.2441-0.29825-2.9904l-1.0206-11.013-11.631-9.5214-10.61 1.4913z" fill="#a4a4a4" stroke="#484848" stroke-linecap="round" stroke-linejoin="round" stroke-width="2.0235"/>
    <path d="m257.5 419.49c13.575 0.0813 18.453-9.7674 23.938-18.812l-0.75-13.938 4.375 0.5625 0.25 12.5 0.6875 1.875-11.062 14.375-6.4375 3.8125-7 1-4-1.375z" fill="#808080"/>
    <path d="m262.61 380.88c-0.91165-0.74629-2.2441-0.61341-2.9904 0.29825l-8.9473 10.93c-5.6247 6.8172-6.0815 13.602-1.4827 20.675l12.847-15.693c0.37315-0.45583 0.89285-0.71083 1.4338-0.76479s1.1008 0.0934 1.5566 0.46654l5.1989 4.2559c0.45583 0.37315 0.71084 0.89286 0.7648 1.4338s-0.0934 1.1008-0.46655 1.5566l-12.768 15.597c7.2047 2.6499 14.419 0.67272 19.467-5.7916l8.9473-10.93c0.7463-0.91165 0.6134-2.2441-0.29825-2.9904l-1.0206-11.013-11.631-9.5214-10.61 1.4913z" fill="none" stroke="#484848" stroke-linecap="round" stroke-linejoin="round" stroke-width="2.0235"/>
    <path d="m249.5 408.86c-5.7215-8.1277 5.3182-18.737 11.625-25.938l12.312-1.8125c0.11711 1.9974-0.13962 2.0338 1.1376 3.534-1.0173-0.0122-9.5502 1.1721-10.212 1.4377-7.6073 3.0531-17.205 14.258-14.863 22.778z" fill="#fff" opacity=".63"/>
    <path transform="matrix(.86793 -.19882 .20416 .8912 -26.866 104.27)" d="m284.96 369.65c0 6.8342-5.7776 12.374-12.905 12.374s-12.905-5.5402-12.905-12.374 5.7776-12.374 12.905-12.374 12.905 5.5402 12.905 12.374z" fill="#a4a4a4" stroke="#484848" stroke-linecap="round" stroke-linejoin="round" stroke-width="2.2166"/>
    <path d="m275.21 381c2.7596-5.6381 7.8129-8.6782 14.558-9.8017-7.8408-2.0096-13.971-0.99884-14.558 9.8017z" fill="#fff" opacity=".6298"/>
    <path d="m305.65 332.16c0.80536-12.314 8.9204-17.249 18.797-18.651-9.9954-3.7482-23.708 5.5699-18.797 18.651z" fill="#fff" opacity=".6298"/>
   </g>
   <g transform="matrix(-1.4034 0 0 1.4034 -121.73 -292.38)">
    <path d="m332.34 435.84h24.042a6.364 6.364 0 0 1 6.364 6.364 6.364 6.364 0 0 1 -6.364 6.364h-24.042a6.364 6.364 0 0 1 -6.364 -6.364 6.364 6.364 0 0 1 6.364 -6.364" fill="#a4a4a4" stroke="#484848" stroke-linecap="round" stroke-linejoin="round" stroke-width="2"/>
    <path d="m332.34 423.84h24.042a6.364 6.364 0 0 1 6.364 6.364 6.364 6.364 0 0 1 -6.364 6.364h-24.042a6.364 6.364 0 0 1 -6.364 -6.364 6.364 6.364 0 0 1 6.364 -6.364" fill="#a4a4a4" stroke="#484848" stroke-linecap="round" stroke-linejoin="round" stroke-width="2"/>
    <path d="m332.34 411.84h24.042a6.364 6.364 0 0 1 6.364 6.364 6.364 6.364 0 0 1 -6.364 6.364h-24.042a6.364 6.364 0 0 1 -6.364 -6.364 6.364 6.364 0 0 1 6.364 -6.364" fill="#a4a4a4" stroke="#484848" stroke-linecap="round" stroke-linejoin="round" stroke-width="2"/>
    <path d="m331.99 399.47h24.042a6.364 6.364 0 0 1 6.364 6.364 6.364 6.364 0 0 1 -6.364 6.364h-24.042a6.364 6.364 0 0 1 -6.364 -6.364 6.364 6.364 0 0 1 6.364 -6.364" fill="#a4a4a4" stroke="#484848" stroke-linecap="round" stroke-linejoin="round" stroke-width="2"/>
    <path d="m351.26 399c2.3103 4.0104 4.2323 8.063 0 12.728 2.6584 3.69 5.3002 7.3827-0.17677 12.374 5.1162 4.7811 3.1122 8.3754 0.35355 11.844 4.5417 7.6568 0.51212 8.759 0 12.551l10.607 0.17678-0.88388-2.6516 2.1213-3.182-1.0607-4.5962-3.3588-2.6516 3.5355-2.6516 0.7071-3.8891-3.7123-4.9497 2.4749-2.2981 0.88388-4.4194-4.2426-5.8336 3.182-2.4749 1.2374-3.7123-2.2981-4.4194-2.2981-1.9445-6.1872 0.53033-0.88389-0.53033z" fill="#808080"/>
    <path d="m336.97 399.12c-2.3103 4.0104-4.2323 8.063 0 12.728-2.6584 3.69-5.3002 7.3827 0.17677 12.374-5.1162 4.7811-3.1122 8.3754-0.35355 11.844-4.5417 7.6568-0.51212 8.759 0 12.551l-10.607 0.17678 0.88388-2.6516-2.1213-3.182 1.0607-4.5962 3.3588-2.6516-3.5355-2.6516-0.7071-3.8891 3.7123-4.9497-2.4749-2.2981-0.88388-4.4194 4.2426-5.8336-3.182-2.4749-1.2374-3.7123 2.2981-4.4194 2.2981-1.9445 6.1872 0.53033 0.88389-0.53033z" fill="#fff" opacity=".63"/>
    <path d="m332.03 436.47h24.667a6.0515 6.0515 0 0 1 6.0515 6.0515 6.0515 6.0515 0 0 1 -6.0515 6.0515h-24.667a6.0515 6.0515 0 0 1 -6.0515 -6.0515 6.0515 6.0515 0 0 1 6.0515 -6.0515" fill="none" stroke="#484848" stroke-linecap="round" stroke-linejoin="round" stroke-width="2"/>
    <path d="m331.97 424.59h24.792a5.989 5.989 0 0 1 5.989 5.989 5.989 5.989 0 0 1 -5.989 5.989h-24.792a5.989 5.989 0 0 1 -5.989 -5.989 5.989 5.989 0 0 1 5.989 -5.989" fill="none" stroke="#484848" stroke-linecap="round" stroke-linejoin="round" stroke-width="2"/>
    <path d="m332.09 412.34h24.542a6.114 6.114 0 0 1 6.114 6.114 6.114 6.114 0 0 1 -6.114 6.114h-24.542a6.114 6.114 0 0 1 -6.114 -6.114 6.114 6.114 0 0 1 6.114 -6.114" fill="none" stroke="#484848" stroke-linecap="round" stroke-linejoin="round" stroke-width="2"/>
    <path d="m331.99 399.47h24.042a6.364 6.364 0 0 1 6.364 6.364 6.364 6.364 0 0 1 -6.364 6.364h-24.042a6.364 6.364 0 0 1 -6.364 -6.364 6.364 6.364 0 0 1 6.364 -6.364" fill="none" stroke="#484848" stroke-linecap="round" stroke-linejoin="round" stroke-width="2"/>
    <path d="m363.1 466.7c-3.851 0.31482-61.685 1.0126-62.933-0.35355 0-13.571 14.697-24.572 32.826-24.572 10.308 0 23.003 1.7891 29.021 4.8779 1.0072 1.8489 1.0852 14.193 1.0852 20.048z" fill="#a4a4a4" stroke="#484848" stroke-linecap="round" stroke-linejoin="round" stroke-width="2"/>
    <path d="m300.34 463.87c31.846-1.1245 62.489 3.7269 56.038-19.092l6.1872 2.1213 0.53033 20.153-62.579-0.17677-0.17678-3.0052z" fill="#808080"/>
    <path d="m363.1 466.7c-3.851 0.31482-61.685 1.0126-62.933-0.35355 0-13.571 14.697-24.572 32.826-24.572 10.308 0 23.003 1.7891 29.021 4.8779 1.0072 1.8489 1.0852 14.193 1.0852 20.048z" fill="none" stroke="#484848" stroke-linecap="round" stroke-linejoin="round" stroke-width="2"/>
    <path d="m306.28 456.85c7.0815-6.0129 14.236-10.688 31.485-12.141-12.861-2.1672-25.95 1.3939-31.485 12.141z" fill="#fff" opacity=".6298"/>
   </g>
   <path d="m-556.43 62.581h18.075v39.695h-18.075z" fill="#a4a4a4" stroke="#484848" stroke-linecap="round" stroke-linejoin="round" stroke-width="2.8068"/>
   <path d="m-561.62 63.995h21.928v9.1222h-21.928z" fill="#e3e3e3"/>
   <path d="m-561.68 91.756h21.928v9.1222h-21.928z" opacity=".35"/>
   <path d="m-663.76 124.8h51.2v19.288h-51.2z" fill="#a4a4a4" stroke="#484848" stroke-linecap="round" stroke-linejoin="round" stroke-width="2.8068"/>
   <path d="m-667.9 144.17h59.829v19.145h-59.829z" fill="#a4a4a4" stroke="#484848" stroke-linecap="round" stroke-linejoin="round" stroke-width="2.8068"/>
   <path d="m-704.72 153.21h129.86v115.1h-129.86z" fill="#a4a4a4" stroke="#484848" stroke-linecap="round" stroke-linejoin="round" stroke-width="2.8068"/>
   <path d="m-741.68 62.581h18.075v39.695h-18.075z" fill="#a4a4a4" stroke="#484848" stroke-linecap="round" stroke-linejoin="round" stroke-width="2.8068"/>
   <path d="m-740.57 63.863h21.928v9.1222h-21.928z" fill="#e3e3e3"/>
   <path d="m-740.22 91.932h21.928v9.1222h-21.928z" opacity=".35"/>
   <path d="m-724.98 37.824h169.31v87.084h-169.31z" fill="#a4a4a4" stroke="#484848" stroke-linecap="round" stroke-linejoin="round" stroke-width="2.8068"/>
   <path d="m-579.72 39.19h22.683v92.503h-22.683c6.5532-30.834 10.453-61.669 0-92.503z" opacity=".3285"/>
   <path d="m-732.43 88.141h23.16l21.683 22.997h92.639l24.636-22.997h23.16v47.409h-185.28v-47.409z" fill="#a4a4a4" stroke="#484848" stroke-linecap="round" stroke-linejoin="round" stroke-width="2.8068"/>
   <path transform="matrix(1.8179 0 0 1.6994 -1293.4 -367.39)" d="m353.55 256.11c0 6.4158-4.8618 11.617-10.859 11.617s-10.859-5.201-10.859-11.617 4.8618-11.617 10.859-11.617 10.859 5.201 10.859 11.617z" fill="#fff" stroke="#484848"/>
   <path transform="matrix(1.8179 0 0 1.6994 -1234.2 -368.46)" d="m353.55 256.11c0 6.4158-4.8618 11.617-10.859 11.617s-10.859-5.201-10.859-11.617 4.8618-11.617 10.859-11.617 10.859 5.201 10.859 11.617z" fill="#fff" stroke="#484848"/>
   <path transform="matrix(2.0093 0 0 2.4614 -1365.4 -547.61)" d="m349.26 252.07c0 2.7895-2.7701 5.0508-6.1872 5.0508s-6.1872-2.2613-6.1872-5.0508 2.7701-5.0508 6.1872-5.0508 6.1872 2.2613 6.1872 5.0508z"/>
   <path transform="matrix(2.0093 0 0 2.4614 -1306.2 -548.32)" d="m349.26 252.07c0 2.7895-2.7701 5.0508-6.1872 5.0508s-6.1872-2.2613-6.1872-5.0508 2.7701-5.0508 6.1872-5.0508 6.1872 2.2613 6.1872 5.0508z"/>
   <path d="m-722.19 84.91 1.4177-42.884 74.073-1.0632-67.694 6.3795-7.7972 37.568z" fill="#e5e5e5"/>
   <path d="m-569.79 89.517 21.265-0.0885v44.657h-34.024c2.9486-9.2476 4.7217-19.083-0.17564-32.254l12.935-12.314v-4e-5z" opacity=".3285"/>
   <path d="m-729.61 99.041 0.13445 33.993 61.936 0.0556-56.331-5.333-5.7394-28.716 4e-5 -3e-5z" fill="#e5e5e5"/>
   <path d="m-646.35-5.3249h6.4504l8.9313 43.168h-24.809l9.4275-43.168z" fill="#a4a4a4" stroke="#484848" stroke-width="2.8068"/>
   <path transform="matrix(1.4034 0 0 1.4034 -969.86 -289.9)" d="m244.31 194.46c0 6.5413-4.9862 11.844-11.137 11.844s-11.137-5.3028-11.137-11.844 4.9862-11.844 11.137-11.844 11.137 5.3028 11.137 11.844z" fill="#604aff" stroke="#00054d" stroke-width="2"/>
   <path d="m-654.03-23.529c7.074-4.2697 14.728-3.8463 22.81 0.0394-6.9816-8.2679-14.319-11.811-22.81-0.0394z" fill="#fff" opacity=".6298"/>
   <path d="m-656.37-12.36c10.233 6.9833 19.558 7.8809 27.454-0.78943-2.0083 11.642-20.576 18.209-27.454 0.78943z" opacity=".35"/>
   <path d="m-665.06 237.56h50.361a3.3938 3.3938 0 0 1 3.3938 3.3938v0.18855a3.3938 3.3938 0 0 1 -3.3938 3.3938h-50.361a3.3938 3.3938 0 0 1 -3.3938 -3.3938v-0.18855a3.3938 3.3938 0 0 1 3.3938 -3.3938" fill="#484848" stroke="#484848" stroke-linecap="round" stroke-linejoin="round" stroke-width="1.7951"/>
   <path d="m-664.36 250.89h50.361a3.3938 3.3938 0 0 1 3.3938 3.3938v0.18855a3.3938 3.3938 0 0 1 -3.3938 3.3938h-50.361a3.3938 3.3938 0 0 1 -3.3938 -3.3938v-0.18855a3.3938 3.3938 0 0 1 3.3938 -3.3938" fill="#484848" stroke="#484848" stroke-linecap="round" stroke-linejoin="round" stroke-width="1.7951"/>
   <path transform="matrix(1.3388 0 0 1.4755 -1136.5 -240.39)" d="m342.5 330.99c0 3.3828-3.0221 6.125-6.75 6.125s-6.75-2.7422-6.75-6.125 3.0221-6.125 6.75-6.125 6.75 2.7423 6.75 6.125z" fill="#f00" stroke="#484848" stroke-linecap="round" stroke-linejoin="round" stroke-width="2"/>
   <path transform="matrix(1.3388 0 0 1.4755 -1041.1 -240.39)" d="m342.5 330.99c0 3.3828-3.0221 6.125-6.75 6.125s-6.75-2.7422-6.75-6.125 3.0221-6.125 6.75-6.125 6.75 2.7423 6.75 6.125z" fill="#f00" stroke="#484848" stroke-linecap="round" stroke-linejoin="round" stroke-width="2"/>
   <path d="m-694.03 161.58h107.94a3.3938 3.3938 0 0 1 3.3938 3.3938v63.383a3.3938 3.3938 0 0 1 -3.3938 3.3938h-107.94a3.3938 3.3938 0 0 1 -3.3938 -3.3938v-63.383a3.3938 3.3938 0 0 1 3.3938 -3.3938" fill="#dbfffc" stroke="#484848" stroke-linecap="round" stroke-linejoin="round" stroke-width="2.8068"/>
   <path d="m-696.72 202.28h13.332l9.8239-30.174 5.9645 30.524 7.368-13.332 11.227 29.823 6.6662-19.297 15.438-0.35086 6.3154-23.156 6.3154 37.542 6.3154-24.56 3.5086 12.631h20.35" fill="none" stroke="#00a799" stroke-linecap="round" stroke-linejoin="round" stroke-width="2.8068"/>
   <path d="m-694.02 228.51 0.0257-57.895c-0.12743-3.8256 2.9275-5.799 5.9573-5.9279l98.442-0.2484-94.573 5.7247c-3.3663 0.42555-4.7809 2.2452-4.8754 5.0078l-5.1521 43.339 7e-5 5e-5 0.17542 9.9994z" fill="#fff" opacity=".95"/>
   <path d="m-694.03 161.58h107.94a3.3938 3.3938 0 0 1 3.3938 3.3938v63.383a3.3938 3.3938 0 0 1 -3.3938 3.3938h-107.94a3.3938 3.3938 0 0 1 -3.3938 -3.3938v-63.383a3.3938 3.3938 0 0 1 3.3938 -3.3938" fill="none" stroke="#484848" stroke-linecap="round" stroke-linejoin="round" stroke-width="2.8068"/>
   <path d="m-693.85 245.55c4.2657-2.3168 8.881-2.087 13.754 0.0213-4.2099-4.4863-8.6344-6.4088-13.754-0.0213z" fill="#fff" opacity=".6298"/>
   <path d="m-598.34 245.48c4.2657-2.3168 8.881-2.087 13.754 0.0213-4.2099-4.4863-8.6344-6.4088-13.754-0.0213z" fill="#fff" opacity=".6298"/>
   <g transform="matrix(1.4034 0 0 1.4034 -1154.9 -291.89)">
    <path d="m332.34 435.84h24.042a6.364 6.364 0 0 1 6.364 6.364 6.364 6.364 0 0 1 -6.364 6.364h-24.042a6.364 6.364 0 0 1 -6.364 -6.364 6.364 6.364 0 0 1 6.364 -6.364" fill="#a4a4a4" stroke="#484848" stroke-linecap="round" stroke-linejoin="round" stroke-width="2"/>
    <path d="m332.34 423.84h24.042a6.364 6.364 0 0 1 6.364 6.364 6.364 6.364 0 0 1 -6.364 6.364h-24.042a6.364 6.364 0 0 1 -6.364 -6.364 6.364 6.364 0 0 1 6.364 -6.364" fill="#a4a4a4" stroke="#484848" stroke-linecap="round" stroke-linejoin="round" stroke-width="2"/>
    <path d="m332.34 411.84h24.042a6.364 6.364 0 0 1 6.364 6.364 6.364 6.364 0 0 1 -6.364 6.364h-24.042a6.364 6.364 0 0 1 -6.364 -6.364 6.364 6.364 0 0 1 6.364 -6.364" fill="#a4a4a4" stroke="#484848" stroke-linecap="round" stroke-linejoin="round" stroke-width="2"/>
    <path d="m331.99 399.47h24.042a6.364 6.364 0 0 1 6.364 6.364 6.364 6.364 0 0 1 -6.364 6.364h-24.042a6.364 6.364 0 0 1 -6.364 -6.364 6.364 6.364 0 0 1 6.364 -6.364" fill="#a4a4a4" stroke="#484848" stroke-linecap="round" stroke-linejoin="round" stroke-width="2"/>
    <path d="m351.26 399c2.3103 4.0104 4.2323 8.063 0 12.728 2.6584 3.69 5.3002 7.3827-0.17677 12.374 5.1162 4.7811 3.1122 8.3754 0.35355 11.844 4.5417 7.6568 0.51212 8.759 0 12.551l10.607 0.17678-0.88388-2.6516 2.1213-3.182-1.0607-4.5962-3.3588-2.6516 3.5355-2.6516 0.7071-3.8891-3.7123-4.9497 2.4749-2.2981 0.88388-4.4194-4.2426-5.8336 3.182-2.4749 1.2374-3.7123-2.2981-4.4194-2.2981-1.9445-6.1872 0.53033-0.88389-0.53033z" fill="#808080"/>
    <path d="m336.97 399.12c-2.3103 4.0104-4.2323 8.063 0 12.728-2.6584 3.69-5.3002 7.3827 0.17677 12.374-5.1162 4.7811-3.1122 8.3754-0.35355 11.844-4.5417 7.6568-0.51212 8.759 0 12.551l-10.607 0.17678 0.88388-2.6516-2.1213-3.182 1.0607-4.5962 3.3588-2.6516-3.5355-2.6516-0.7071-3.8891 3.7123-4.9497-2.4749-2.2981-0.88388-4.4194 4.2426-5.8336-3.182-2.4749-1.2374-3.7123 2.2981-4.4194 2.2981-1.9445 6.1872 0.53033 0.88389-0.53033z" fill="#fff" opacity=".63"/>
    <path d="m332.03 436.47h24.667a6.0515 6.0515 0 0 1 6.0515 6.0515 6.0515 6.0515 0 0 1 -6.0515 6.0515h-24.667a6.0515 6.0515 0 0 1 -6.0515 -6.0515 6.0515 6.0515 0 0 1 6.0515 -6.0515" fill="none" stroke="#484848" stroke-linecap="round" stroke-linejoin="round" stroke-width="2"/>
    <path d="m331.97 424.59h24.792a5.989 5.989 0 0 1 5.989 5.989 5.989 5.989 0 0 1 -5.989 5.989h-24.792a5.989 5.989 0 0 1 -5.989 -5.989 5.989 5.989 0 0 1 5.989 -5.989" fill="none" stroke="#484848" stroke-linecap="round" stroke-linejoin="round" stroke-width="2"/>
    <path d="m332.09 412.34h24.542a6.114 6.114 0 0 1 6.114 6.114 6.114 6.114 0 0 1 -6.114 6.114h-24.542a6.114 6.114 0 0 1 -6.114 -6.114 6.114 6.114 0 0 1 6.114 -6.114" fill="none" stroke="#484848" stroke-linecap="round" stroke-linejoin="round" stroke-width="2"/>
    <path d="m331.99 399.47h24.042a6.364 6.364 0 0 1 6.364 6.364 6.364 6.364 0 0 1 -6.364 6.364h-24.042a6.364 6.364 0 0 1 -6.364 -6.364 6.364 6.364 0 0 1 6.364 -6.364" fill="none" stroke="#484848" stroke-linecap="round" stroke-linejoin="round" stroke-width="2"/>
    <path d="m363.1 466.7c-3.851 0.31482-61.685 1.0126-62.933-0.35355 0-13.571 14.697-24.572 32.826-24.572 10.308 0 23.003 1.7891 29.021 4.8779 1.0072 1.8489 1.0852 14.193 1.0852 20.048z" fill="#a4a4a4" stroke="#484848" stroke-linecap="round" stroke-linejoin="round" stroke-width="2"/>
    <path d="m300.34 463.87c31.846-1.1245 62.489 3.7269 56.038-19.092l6.1872 2.1213 0.53033 20.153-62.579-0.17677-0.17678-3.0052z" fill="#808080"/>
    <path d="m363.1 466.7c-3.851 0.31482-61.685 1.0126-62.933-0.35355 0-13.571 14.697-24.572 32.826-24.572 10.308 0 23.003 1.7891 29.021 4.8779 1.0072 1.8489 1.0852 14.193 1.0852 20.048z" fill="none" stroke="#484848" stroke-linecap="round" stroke-linejoin="round" stroke-width="2"/>
    <path d="m306.28 456.85c7.0815-6.0129 14.236-10.688 31.485-12.141-12.861-2.1672-25.95 1.3939-31.485 12.141z" fill="#fff" opacity=".6298"/>
   </g>
  </g>
 </g>
</svg>
